<mxfile host="app.diagrams.net" modified="2020-11-24T14:35:29.669Z" agent="5.0 (Windows NT 10.0; Win64; x64) AppleWebKit/537.36 (KHTML, like Gecko) Chrome/87.0.4280.66 Safari/537.36" etag="GGANMIVd_1eH3GBZ1y4c" version="13.10.2" type="github">
  <diagram id="C5RBs43oDa-KdzZeNtuy" name="Page-1">
    <mxGraphModel dx="3519" dy="2886" grid="1" gridSize="10" guides="1" tooltips="1" connect="1" arrows="1" fold="1" page="1" pageScale="1" pageWidth="827" pageHeight="1169" math="0" shadow="0">
      <root>
        <mxCell id="WIyWlLk6GJQsqaUBKTNV-0" />
        <mxCell id="WIyWlLk6GJQsqaUBKTNV-1" parent="WIyWlLk6GJQsqaUBKTNV-0" />
        <mxCell id="L40ypqSTENDBgoipP1r0-0" value="" style="rounded=1;whiteSpace=wrap;html=1;" vertex="1" parent="WIyWlLk6GJQsqaUBKTNV-1">
          <mxGeometry x="-1200" y="280" width="130" height="50" as="geometry" />
        </mxCell>
        <mxCell id="L40ypqSTENDBgoipP1r0-5" value="" style="edgeStyle=orthogonalEdgeStyle;rounded=0;orthogonalLoop=1;jettySize=auto;html=1;fontFamily=Helvetica;" edge="1" parent="WIyWlLk6GJQsqaUBKTNV-1" source="L40ypqSTENDBgoipP1r0-2" target="L40ypqSTENDBgoipP1r0-4">
          <mxGeometry relative="1" as="geometry">
            <Array as="points">
              <mxPoint x="-2259" y="-1540" />
              <mxPoint x="-2259" y="-1540" />
            </Array>
          </mxGeometry>
        </mxCell>
        <mxCell id="L40ypqSTENDBgoipP1r0-2" value="ORTALAMASI ALINACAK 3 SAYIYI GIRINIZ&lt;br&gt;" style="strokeWidth=2;html=1;shape=mxgraph.flowchart.start_1;whiteSpace=wrap;fontFamily=Helvetica;" vertex="1" parent="WIyWlLk6GJQsqaUBKTNV-1">
          <mxGeometry x="-2359" y="-1680" width="200" height="70" as="geometry" />
        </mxCell>
        <mxCell id="L40ypqSTENDBgoipP1r0-7" value="" style="edgeStyle=orthogonalEdgeStyle;rounded=0;orthogonalLoop=1;jettySize=auto;html=1;fontFamily=Helvetica;" edge="1" parent="WIyWlLk6GJQsqaUBKTNV-1" source="L40ypqSTENDBgoipP1r0-4" target="L40ypqSTENDBgoipP1r0-6">
          <mxGeometry relative="1" as="geometry">
            <Array as="points">
              <mxPoint x="-2259" y="-1450" />
              <mxPoint x="-2259" y="-1450" />
            </Array>
          </mxGeometry>
        </mxCell>
        <mxCell id="L40ypqSTENDBgoipP1r0-4" value="SAYI 1,2,3 GIRINIZ&lt;br&gt;" style="shape=parallelogram;perimeter=parallelogramPerimeter;whiteSpace=wrap;html=1;fixedSize=1;strokeWidth=2;" vertex="1" parent="WIyWlLk6GJQsqaUBKTNV-1">
          <mxGeometry x="-2359" y="-1525" width="210" height="60" as="geometry" />
        </mxCell>
        <mxCell id="L40ypqSTENDBgoipP1r0-9" value="" style="edgeStyle=orthogonalEdgeStyle;rounded=0;orthogonalLoop=1;jettySize=auto;html=1;fontFamily=Helvetica;" edge="1" parent="WIyWlLk6GJQsqaUBKTNV-1" source="L40ypqSTENDBgoipP1r0-6" target="L40ypqSTENDBgoipP1r0-8">
          <mxGeometry relative="1" as="geometry" />
        </mxCell>
        <mxCell id="L40ypqSTENDBgoipP1r0-6" value="TOPLAM=SAYI1+SAYI2+SAYI3" style="whiteSpace=wrap;html=1;strokeWidth=2;" vertex="1" parent="WIyWlLk6GJQsqaUBKTNV-1">
          <mxGeometry x="-2360" y="-1385" width="201" height="60" as="geometry" />
        </mxCell>
        <mxCell id="L40ypqSTENDBgoipP1r0-11" value="" style="edgeStyle=orthogonalEdgeStyle;rounded=0;orthogonalLoop=1;jettySize=auto;html=1;fontFamily=Helvetica;" edge="1" parent="WIyWlLk6GJQsqaUBKTNV-1" source="L40ypqSTENDBgoipP1r0-8" target="L40ypqSTENDBgoipP1r0-10">
          <mxGeometry relative="1" as="geometry" />
        </mxCell>
        <mxCell id="L40ypqSTENDBgoipP1r0-8" value="SONUC= TOPLAM / 3" style="whiteSpace=wrap;html=1;strokeWidth=2;" vertex="1" parent="WIyWlLk6GJQsqaUBKTNV-1">
          <mxGeometry x="-2360" y="-1245" width="200" height="60" as="geometry" />
        </mxCell>
        <mxCell id="L40ypqSTENDBgoipP1r0-10" value="SONUC" style="ellipse;whiteSpace=wrap;html=1;strokeWidth=2;" vertex="1" parent="WIyWlLk6GJQsqaUBKTNV-1">
          <mxGeometry x="-2319" y="-1115" width="120" height="80" as="geometry" />
        </mxCell>
      </root>
    </mxGraphModel>
  </diagram>
</mxfile>
